<svg viewBox="0 0 29700 21000">
 <g id="Layer_x0020_1">
  <metadata id="CorelCorpID_0Corel-Layer"/>
  <g id="_2332534287856">
   <path class="fil0" fill="#1798BF" d="M22066.99 12783.39l0.1 0c821.19,0 1493.02,509.66 1493.02,1132.7l0 4184.37c0,623.04 -671.83,1132.66 -1493.02,1132.66l-0.1 0c-821.23,0 -1492.92,-509.62 -1492.92,-1132.66l0 -4184.37c0,-623.04 671.69,-1132.7 1492.92,-1132.7zm-1492.92 -12732.25l9114.15 0 0 14099.32c-78.15,678.27 -715.91,1211.62 -1484.92,1211.62l-0.09 0c-821,0 -1492.74,-608.41 -1492.74,-1351.97l0 -6932.19 -11.91 0 0 -2941.15c0,-607.69 -705.53,-1104.97 -1567.8,-1104.97 -862.02,0 -1567.55,497.28 -1567.55,1104.97l0 2941.15 -3.1 0 0 2802.96c0,743.46 -671.83,1351.87 -1492.93,1351.87l-0.19 0c-820.75,0 -1492.92,-608.31 -1492.92,-1351.87l0 -2802.96 0 -2828.73 0 -4198.05z"/>
   <path class="fil0" fill="#1798BF" d="M1440.84 11292.94l-0.1 0c-692.32,0 -1278.43,380.71 -1445.36,892.52l0 4992.74c166.93,511.81 753.04,892.53 1445.36,892.53l0.1 0c821.18,0 1492.93,-535.6 1492.93,-1190.37l0 -4397.06c0,-654.77 -671.75,-1190.36 -1492.93,-1190.36zm-1445.46 -11241.8l9074.65 0 0 4198.05 0 2828.73 0 5675.54c0,743.6 -672.13,1351.87 -1492.98,1351.87l-0.14 0c-821.05,0 -1492.88,-608.46 -1492.88,-1351.87l0 -5675.54 -3.05 0 0 -2941.15c0,-607.69 -705.62,-1104.97 -1567.7,-1104.97 -862.22,0 -1567.74,497.28 -1567.74,1104.97l0 2941.15 -11.92 0 0 2039.82c0,743.55 -671.74,1351.87 -1492.78,1351.87l-0.1 0c-692.37,0 -1278.43,-432.42 -1445.36,-1013.62l0 -9404.85z"/>
   <path class="fil1" fill="#DC5C05" d="M19256.41 2944.26l0 -2893.12c-2956.26,0 -5912.52,0 -8868.78,0l0 2893.12 0 574.24 0 7937.42c0,743.36 653.4,1351.72 1451.75,1351.72 797.89,0 1451.28,-608.55 1451.28,-1351.72l0 -1232.07 3 0 0 -4933.6c0,-607.4 685.85,-1104.97 1524.1,-1104.97 838.24,0 1524.19,497.23 1524.19,1104.97l0 1235.59 11.53 0 0 1962.43c0,743.46 653.3,1351.87 1451.56,1351.87 798.27,0 1451.37,-608.46 1451.37,-1351.87l0 -4969.77 0 -574.24z"/>
  </g>
 </g>
</svg>
